REM DIRINDEX 1\2,1\3
REM DIRNAME cjc116,folder01,folder02
TITLE ""
FILE "Disc1Track10.mp3" MP3
  TRACK 01 AUDIO
    TITLE "0:"
    INDEX 01 00:00:00
  TRACK 02 AUDIO
    TITLE "3:cjc116_1157"
    INDEX 01 00:00:09
  TRACK 03 AUDIO
    TITLE "0:"
    INDEX 01 00:01:46
  TRACK 04 AUDIO
    TITLE "2:cjc116_1158"
    INDEX 01 00:02:28
  TRACK 05 AUDIO
    TITLE "0:"
    INDEX 01 00:03:31
  TRACK 06 AUDIO
    TITLE "2:cjc116_1159"
    INDEX 01 00:03:47
  TRACK 07 AUDIO
    TITLE "0:"
    INDEX 01 00:08:01
  TRACK 08 AUDIO
    TITLE "2:cjc116_1160"
    INDEX 01 00:08:46
  TRACK 09 AUDIO
    TITLE "0:"
    INDEX 01 00:09:57
  TRACK 10 AUDIO
    TITLE "2:cjc116_1161"
    INDEX 01 00:09:71
  TRACK 11 AUDIO
    TITLE "0:"
    INDEX 01 00:14:21
  TRACK 12 AUDIO
    TITLE "2:cjc116_1162"
    INDEX 01 00:14:64
  TRACK 13 AUDIO
    TITLE "0:"
    INDEX 01 00:15:62
  TRACK 14 AUDIO
    TITLE "2:cjc116_1163"
    INDEX 01 00:16:04
  TRACK 15 AUDIO
    TITLE "0:"
    INDEX 01 00:20:18
  TRACK 16 AUDIO
    TITLE "2:cjc116_1164"
    INDEX 01 00:20:67
  TRACK 17 AUDIO
    TITLE "0:"
    INDEX 01 00:21:70
  TRACK 18 AUDIO
    TITLE "2:cjc116_1165"
    INDEX 01 00:22:13
  TRACK 19 AUDIO
    TITLE "0:"
    INDEX 01 00:25:74
  TRACK 20 AUDIO
    TITLE "2:cjc116_1166"
    INDEX 01 00:26:42
  TRACK 21 AUDIO
    TITLE "0:"
    INDEX 01 00:27:28
  TRACK 22 AUDIO
    TITLE "2:cjc116_1167"
    INDEX 01 00:27:47
  TRACK 23 AUDIO
    TITLE "0:"
    INDEX 01 00:31:27
  TRACK 24 AUDIO
    TITLE "2:cjc116_1168"
    INDEX 01 00:32:01
  TRACK 25 AUDIO
    TITLE "0:"
    INDEX 01 00:33:03
  TRACK 26 AUDIO
    TITLE "2:cjc116_1169"
    INDEX 01 00:33:19
  TRACK 27 AUDIO
    TITLE "0:"
    INDEX 01 00:37:32
  TRACK 28 AUDIO
    TITLE "2:cjc116_1170"
    INDEX 01 00:38:02
  TRACK 29 AUDIO
    TITLE "0:"
    INDEX 01 00:39:11
  TRACK 30 AUDIO
    TITLE "2:cjc116_1171"
    INDEX 01 00:39:39
  TRACK 31 AUDIO
    TITLE "0:"
    INDEX 01 00:43:58
  TRACK 32 AUDIO
    TITLE "2:cjc116_1172"
    INDEX 01 00:44:32
  TRACK 33 AUDIO
    TITLE "0:"
    INDEX 01 00:45:26
  TRACK 34 AUDIO
    TITLE "2:cjc116_1173"
    INDEX 01 00:45:43
  TRACK 35 AUDIO
    TITLE "0:"
    INDEX 01 00:49:43
  TRACK 36 AUDIO
    TITLE "2:cjc116_1174"
    INDEX 01 00:50:05
  TRACK 37 AUDIO
    TITLE "0:"
    INDEX 01 00:51:11
  TRACK 38 AUDIO
    TITLE "2:cjc116_1175"
    INDEX 01 00:51:32
  TRACK 39 AUDIO
    TITLE "0:"
    INDEX 01 00:55:24
  TRACK 40 AUDIO
    TITLE "2:cjc116_1176"
    INDEX 01 00:55:59
  TRACK 41 AUDIO
    TITLE "0:"
    INDEX 01 00:56:55
  TRACK 42 AUDIO
    TITLE "2:cjc116_1177"
    INDEX 01 00:57:03
  TRACK 43 AUDIO
    TITLE "0:"
    INDEX 01 01:00:70
  TRACK 44 AUDIO
    TITLE "2:cjc116_1178"
    INDEX 01 01:01:38
  TRACK 45 AUDIO
    TITLE "0:"
    INDEX 01 01:02:48
  TRACK 46 AUDIO
    TITLE "2:cjc116_1179"
    INDEX 01 01:02:59
  TRACK 47 AUDIO
    TITLE "0:"
    INDEX 01 01:06:22
  TRACK 48 AUDIO
    TITLE "2:cjc116_1180"
    INDEX 01 01:06:67
  TRACK 49 AUDIO
    TITLE "0:"
    INDEX 01 01:07:68
  TRACK 50 AUDIO
    TITLE "2:cjc116_1181"
    INDEX 01 01:08:17
  TRACK 51 AUDIO
    TITLE "0:"
    INDEX 01 01:12:09
  TRACK 52 AUDIO
    TITLE "2:cjc116_1182"
    INDEX 01 01:12:54
  TRACK 53 AUDIO
    TITLE "0:"
    INDEX 01 01:13:51
  TRACK 54 AUDIO
    TITLE "2:cjc116_1183"
    INDEX 01 01:13:65
  TRACK 55 AUDIO
    TITLE "0:"
    INDEX 01 01:18:31
  TRACK 56 AUDIO
    TITLE "2:cjc116_1184"
    INDEX 01 01:19:01
  TRACK 57 AUDIO
    TITLE "0:"
    INDEX 01 01:20:02
  TRACK 58 AUDIO
    TITLE "2:cjc116_1185"
    INDEX 01 01:20:18
  TRACK 59 AUDIO
    TITLE "0:"
    INDEX 01 01:24:32
  TRACK 60 AUDIO
    TITLE "2:cjc116_1186"
    INDEX 01 01:25:19
  TRACK 61 AUDIO
    TITLE "0:"
    INDEX 01 01:26:15
  TRACK 62 AUDIO
    TITLE "2:cjc116_1187"
    INDEX 01 01:26:36
  TRACK 63 AUDIO
    TITLE "0:"
    INDEX 01 01:30:58
  TRACK 64 AUDIO
    TITLE "2:cjc116_1188"
    INDEX 01 01:31:26
  TRACK 65 AUDIO
    TITLE "0:"
    INDEX 01 01:32:12
  TRACK 66 AUDIO
    TITLE "2:cjc116_1189"
    INDEX 01 01:32:37
  TRACK 67 AUDIO
    TITLE "0:"
    INDEX 01 01:35:47
  TRACK 68 AUDIO
    TITLE "2:cjc116_1190"
    INDEX 01 01:36:25
  TRACK 69 AUDIO
    TITLE "0:"
    INDEX 01 01:37:26
  TRACK 70 AUDIO
    TITLE "2:cjc116_1191"
    INDEX 01 01:37:38
  TRACK 71 AUDIO
    TITLE "0:"
    INDEX 01 01:42:12
  TRACK 72 AUDIO
    TITLE "2:cjc116_1192"
    INDEX 01 01:42:55
  TRACK 73 AUDIO
    TITLE "0:"
    INDEX 01 01:43:70
  TRACK 74 AUDIO
    TITLE "2:cjc116_1193"
    INDEX 01 01:44:07
  TRACK 75 AUDIO
    TITLE "0:"
    INDEX 01 01:48:22
  TRACK 76 AUDIO
    TITLE "2:cjc116_1194"
    INDEX 01 01:48:69
  TRACK 77 AUDIO
    TITLE "0:"
    INDEX 01 01:50:04
  TRACK 78 AUDIO
    TITLE "2:cjc116_1195"
    INDEX 01 01:50:17
  TRACK 79 AUDIO
    TITLE "0:"
    INDEX 01 01:54:68
  TRACK 80 AUDIO
    TITLE "2:cjc116_1196"
    INDEX 01 01:55:28
  TRACK 81 AUDIO
    TITLE "0:"
    INDEX 01 01:56:18
  TRACK 82 AUDIO
    TITLE "2:cjc116_1197"
    INDEX 01 01:56:39
  TRACK 83 AUDIO
    TITLE "0:"
    INDEX 01 02:00:29
  TRACK 84 AUDIO
    TITLE "2:cjc116_1198"
    INDEX 01 02:00:71
  TRACK 85 AUDIO
    TITLE "0:"
    INDEX 01 02:02:11
  TRACK 86 AUDIO
    TITLE "2:cjc116_1199"
    INDEX 01 02:02:22
  TRACK 87 AUDIO
    TITLE "0:"
    INDEX 01 02:06:40
  TRACK 88 AUDIO
    TITLE "2:cjc116_1200"
    INDEX 01 02:07:16
  TRACK 89 AUDIO
    TITLE "0:"
    INDEX 01 02:08:21
  TRACK 90 AUDIO
    TITLE "2:cjc116_1201"
    INDEX 01 02:08:43
  TRACK 91 AUDIO
    TITLE "0:"
    INDEX 01 02:12:17
  TRACK 92 AUDIO
    TITLE "2:cjc116_1202"
    INDEX 01 02:12:54
  TRACK 93 AUDIO
    TITLE "0:"
    INDEX 01 02:13:65
  TRACK 94 AUDIO
    TITLE "2:cjc116_1203"
    INDEX 01 02:14:06
  TRACK 95 AUDIO
    TITLE "0:"
    INDEX 01 02:18:16
  TRACK 96 AUDIO
    TITLE "2:cjc116_1204"
    INDEX 01 02:18:49
  TRACK 97 AUDIO
    TITLE "0:"
    INDEX 01 02:19:48
  TRACK 98 AUDIO
    TITLE "2:cjc116_1205"
    INDEX 01 02:20:07
  TRACK 99 AUDIO
    TITLE "0:"
    INDEX 01 02:24:16
  TRACK 100 AUDIO
    TITLE "2:cjc116_1206"
    INDEX 01 02:24:51
  TRACK 101 AUDIO
    TITLE "0:"
    INDEX 01 02:25:55
  TRACK 102 AUDIO
    TITLE "2:cjc116_1207"
    INDEX 01 02:25:72
  TRACK 103 AUDIO
    TITLE "0:"
    INDEX 01 02:30:07
  TRACK 104 AUDIO
    TITLE "2:cjc116_1208"
    INDEX 01 02:30:52
  TRACK 105 AUDIO
    TITLE "0:"
    INDEX 01 02:31:44
  TRACK 106 AUDIO
    TITLE "2:cjc116_1209"
    INDEX 01 02:31:69
  TRACK 107 AUDIO
    TITLE "0:"
    INDEX 01 02:36:19
  TRACK 108 AUDIO
    TITLE "2:cjc116_1210"
    INDEX 01 02:36:57
  TRACK 109 AUDIO
    TITLE "0:"
    INDEX 01 02:38:03
  TRACK 110 AUDIO
    TITLE "2:cjc116_1211"
    INDEX 01 02:38:14
  TRACK 111 AUDIO
    TITLE "0:"
    INDEX 01 02:42:63
  TRACK 112 AUDIO
    TITLE "2:cjc116_1212"
    INDEX 01 02:43:45
  TRACK 113 AUDIO
    TITLE "0:"
    INDEX 01 02:44:46
  TRACK 114 AUDIO
    TITLE "2:cjc116_1213"
    INDEX 01 02:44:62
  TRACK 115 AUDIO
    TITLE "0:"
    INDEX 01 02:48:36
  TRACK 116 AUDIO
    TITLE "2:cjc116_1214"
    INDEX 01 02:49:26
  TRACK 117 AUDIO
    TITLE "0:"
    INDEX 01 02:50:00
  TRACK 118 AUDIO
    TITLE "2:cjc116_1215"
    INDEX 01 02:50:27
  TRACK 119 AUDIO
    TITLE "0:"
    INDEX 01 02:53:69
  TRACK 120 AUDIO
    TITLE "2:cjc116_1216"
    INDEX 01 02:54:43
  TRACK 121 AUDIO
    TITLE "0:"
    INDEX 01 02:55:36
  TRACK 122 AUDIO
    TITLE "2:cjc116_1217"
    INDEX 01 02:55:48
  TRACK 123 AUDIO
    TITLE "0:"
    INDEX 01 02:59:34
  TRACK 124 AUDIO
    TITLE "2:cjc116_1218"
    INDEX 01 03:00:06
  TRACK 125 AUDIO
    TITLE "0:"
    INDEX 01 03:01:02
  TRACK 126 AUDIO
    TITLE "2:cjc116_1219"
    INDEX 01 03:01:25
  TRACK 127 AUDIO
    TITLE "0:"
    INDEX 01 03:05:27
  TRACK 128 AUDIO
    TITLE "2:cjc116_1220"
    INDEX 01 03:06:01
  TRACK 129 AUDIO
    TITLE "0:"
    INDEX 01 03:07:00
  TRACK 130 AUDIO
    TITLE "2:cjc116_1221"
    INDEX 01 03:07:18
  TRACK 131 AUDIO
    TITLE "0:"
    INDEX 01 03:11:45
  TRACK 132 AUDIO
    TITLE "2:cjc116_1222"
    INDEX 01 03:12:19
  TRACK 133 AUDIO
    TITLE "0:"
    INDEX 01 03:13:19
  TRACK 134 AUDIO
    TITLE "2:cjc116_1223"
    INDEX 01 03:13:32
  TRACK 135 AUDIO
    TITLE "0:"
    INDEX 01 03:17:56
  TRACK 136 AUDIO
    TITLE "2:cjc116_1224"
    INDEX 01 03:18:26
  TRACK 137 AUDIO
    TITLE "0:"
    INDEX 01 03:19:23
  TRACK 138 AUDIO
    TITLE "2:cjc116_1225"
    INDEX 01 03:19:37
  TRACK 139 AUDIO
    TITLE "0:"
    INDEX 01 03:23:37
  TRACK 140 AUDIO
    TITLE "2:cjc116_1226"
    INDEX 01 03:24:28
  TRACK 141 AUDIO
    TITLE "0:"
    INDEX 01 03:25:20
  TRACK 142 AUDIO
    TITLE "2:cjc116_1227"
    INDEX 01 03:25:39
  TRACK 143 AUDIO
    TITLE "0:"
    INDEX 01 03:29:31
  TRACK 144 AUDIO
    TITLE "2:cjc116_1228"
    INDEX 01 03:30:01
  TRACK 145 AUDIO
    TITLE "0:"
    INDEX 01 03:30:66
  TRACK 146 AUDIO
    TITLE "2:cjc116_1229"
    INDEX 01 03:31:15
  TRACK 147 AUDIO
    TITLE "0:"
    INDEX 01 03:35:48
  TRACK 148 AUDIO
    TITLE "2:cjc116_1230"
    INDEX 01 03:36:24
  TRACK 149 AUDIO
    TITLE "0:"
    INDEX 01 03:37:21
  TRACK 150 AUDIO
    TITLE "2:cjc116_1231"
    INDEX 01 03:37:35
  TRACK 151 AUDIO
    TITLE "0:"
    INDEX 01 03:41:50
  TRACK 152 AUDIO
    TITLE "2:cjc116_1232"
    INDEX 01 03:42:18
  TRACK 153 AUDIO
    TITLE "0:"
    INDEX 01 03:43:10
  TRACK 154 AUDIO
    TITLE "2:cjc116_1233"
    INDEX 01 03:43:26
  TRACK 155 AUDIO
    TITLE "0:"
    INDEX 01 03:47:04
